<svg width="130" height="112" viewBox="0 0 130 112" fill="none" xmlns="http://www.w3.org/2000/svg">
<rect x="18" width="112" height="112" rx="56" fill="#353739"/>
<path fill-rule="evenodd" clip-rule="evenodd" d="M57.344 37.2507C56.1919 37.2507 55.258 38.1834 55.258 39.334V72.6673C55.258 73.8179 56.1919 74.7506 57.344 74.7506H65.688V78.9173H57.344C53.8878 78.9173 51.0859 76.1191 51.0859 72.6673V39.334C51.0859 35.8822 53.8878 33.084 57.344 33.084H67.1942C68.7599 33.084 70.2687 33.6701 71.4229 34.7268L81.3898 43.8513C82.6829 45.0352 83.4191 46.7066 83.4191 48.4586V51.834H79.2471V48.4586C79.2471 47.8746 79.0017 47.3174 78.5707 46.9228L68.6038 37.7982C68.219 37.446 67.7161 37.2507 67.1942 37.2507H57.344Z" fill="white"/>
<path fill-rule="evenodd" clip-rule="evenodd" d="M66.7324 42.4596V35.168H70.9044V42.4596C70.9044 43.6102 71.8384 44.543 72.9905 44.543H80.2915V48.7096H72.9905C69.5342 48.7096 66.7324 45.9114 66.7324 42.4596Z" fill="white"/>
<path fill-rule="evenodd" clip-rule="evenodd" d="M66.0113 66.418C66.6984 67.5128 68.013 69.3594 69.9372 71.0386C72.2495 73.0563 75.3425 74.7513 79.2485 74.7513C83.1546 74.7513 86.2476 73.0563 88.5599 71.0386C90.4841 69.3594 91.7987 67.5128 92.4858 66.418C91.7987 65.3232 90.4841 63.4765 88.5599 61.7974C86.2476 59.7796 83.1546 58.0846 79.2485 58.0846C75.3425 58.0846 72.2495 59.7796 69.9372 61.7974C68.013 63.4765 66.6984 65.3232 66.0113 66.418ZM67.1922 58.6597C70.0118 56.1992 74.0413 53.918 79.2485 53.918C84.4557 53.918 88.4853 56.1992 91.3049 58.6597C94.1113 61.1086 95.8174 63.8147 96.4548 64.927C96.9851 65.8527 96.9851 66.9833 96.4548 67.9089C95.8174 69.0212 94.1113 71.7274 91.3049 74.1763C88.4853 76.6367 84.4557 78.918 79.2485 78.918C74.0413 78.918 70.0118 76.6367 67.1922 74.1763C64.3858 71.7274 62.6796 69.0212 62.0423 67.9089C61.5119 66.9833 61.5119 65.8527 62.0423 64.927C62.6796 63.8147 64.3858 61.1086 67.1922 58.6597Z" fill="white"/>
<path fill-rule="evenodd" clip-rule="evenodd" d="M79.2483 64.3346C78.0962 64.3346 77.1623 65.2674 77.1623 66.418C77.1623 67.5686 78.0962 68.5013 79.2483 68.5013C80.4003 68.5013 81.3343 67.5686 81.3343 66.418C81.3343 65.2674 80.4003 64.3346 79.2483 64.3346ZM72.9902 66.418C72.9902 62.9662 75.7921 60.168 79.2483 60.168C82.7045 60.168 85.5063 62.9662 85.5063 66.418C85.5063 69.8698 82.7045 72.668 79.2483 72.668C75.7921 72.668 72.9902 69.8698 72.9902 66.418Z" fill="white"/>
<rect x="0.5" y="38" width="36" height="36" rx="18" fill="#084298"/>
<rect x="0.5" y="38" width="36" height="36" rx="18" stroke="#F6F6F6"/>
<path d="M14.7211 48.476C15.0691 49.244 15.3451 50.216 15.5491 51.392C15.6691 51.944 15.8671 52.322 16.1431 52.526C16.4311 52.718 16.8091 52.814 17.2771 52.814C17.6611 52.814 17.9731 52.706 18.2131 52.49C18.4651 52.274 18.5911 51.938 18.5911 51.482C18.5911 51.326 18.5851 51.206 18.5731 51.122L18.3031 49.178L19.7071 48.962L19.9771 50.906L19.9951 51.05C20.1031 51.722 20.2651 52.184 20.4811 52.436C20.6971 52.688 20.9911 52.814 21.3631 52.814C21.7591 52.814 22.0531 52.724 22.2451 52.544C22.4491 52.352 22.5511 52.04 22.5511 51.608C22.5511 51.524 22.5391 51.362 22.5151 51.122L22.2451 48.908L23.6491 48.728L23.9191 50.906C23.9431 51.194 23.9551 51.398 23.9551 51.518C23.9551 52.454 23.7031 53.174 23.1991 53.678C22.6951 54.182 22.0831 54.434 21.3631 54.434C20.5231 54.434 19.8751 54.056 19.4191 53.3C19.1551 53.66 18.8311 53.942 18.4471 54.146C18.0631 54.338 17.6731 54.434 17.2771 54.434C16.7491 54.434 16.2751 54.302 15.8551 54.038C15.8911 54.782 15.9091 55.796 15.9091 57.08L15.8731 60.5H14.4691L14.5051 57.08V56.486C14.5051 55.034 14.4331 53.69 14.2891 52.454C14.1451 51.206 13.8571 50.096 13.4251 49.124L14.7211 48.476Z" fill="white"/>
</svg>
