<svg width="130" height="112" viewBox="0 0 130 112" fill="none" xmlns="http://www.w3.org/2000/svg">
<rect x="18" width="112" height="112" rx="56" fill="#353739"/>
<path fill-rule="evenodd" clip-rule="evenodd" d="M53.166 51.8327C53.166 42.6279 60.6279 35.166 69.8327 35.166C79.0374 35.166 86.4993 42.6279 86.4993 51.8327C86.4993 61.0374 79.0374 68.4993 69.8327 68.4993C60.6279 68.4993 53.166 61.0374 53.166 51.8327ZM69.8327 44.541C73.8598 44.541 77.1243 47.8056 77.1243 51.8327H81.291C81.291 45.5044 76.1609 40.3743 69.8327 40.3743V44.541Z" fill="white"/>
<path fill-rule="evenodd" clip-rule="evenodd" d="M81.7217 60.7754L94.2217 73.2754L91.2754 76.2217L78.7754 63.7217L81.7217 60.7754Z" fill="white"/>
<rect x="0.5" y="38" width="36" height="36" rx="18" fill="#084298"/>
<rect x="0.5" y="38" width="36" height="36" rx="18" stroke="#F6F6F6"/>
<path d="M18.7269 48.476C19.1949 49.544 19.5069 50.762 19.6629 52.13C19.8309 53.498 19.9149 54.95 19.9149 56.486V57.08L19.8789 60.5H18.4749L18.5109 57.08V56.486C18.5109 55.034 18.4389 53.69 18.2949 52.454C18.1509 51.206 17.8629 50.096 17.4309 49.124L18.7269 48.476Z" fill="white"/>
</svg>
