<svg width="130" height="112" viewBox="0 0 130 112" fill="none" xmlns="http://www.w3.org/2000/svg">
<rect x="18" width="112" height="112" rx="56" fill="#353739"/>
<path fill-rule="evenodd" clip-rule="evenodd" d="M53.1719 52.3555C52.0199 52.3555 51.0859 53.2882 51.0859 54.4388V71.1055C51.0859 72.2561 52.0199 73.1888 53.1719 73.1888H59.43C60.5821 73.1888 61.516 72.2561 61.516 71.1055V54.4388C61.516 53.2882 60.5821 52.3555 59.43 52.3555H53.1719Z" fill="white"/>
<path fill-rule="evenodd" clip-rule="evenodd" d="M69.0259 61.1055L76.2574 66.5221C76.6185 66.7926 77.0577 66.9388 77.509 66.9388H91.7635C94.6436 66.9388 96.9785 69.2706 96.9785 72.1471C96.9785 75.0236 94.6436 77.3555 91.7635 77.3555H74.3681C73.7766 77.3555 73.1882 77.2717 72.6202 77.1067L58.8477 73.1059L60.0129 69.105L73.7855 73.1059C73.9748 73.1609 74.1709 73.1888 74.3681 73.1888H91.7635C92.3395 73.1888 92.8065 72.7224 92.8065 72.1471C92.8065 71.5718 92.3395 71.1055 91.7635 71.1055H77.509C76.155 71.1055 74.8375 70.6668 73.7542 69.8555L66.5227 64.4388L69.0259 61.1055Z" fill="white"/>
<path fill-rule="evenodd" clip-rule="evenodd" d="M68.1336 56.5221H59.4316V52.3555H68.1336C69.7933 52.3555 71.3851 53.0139 72.5587 54.1861L79.6437 61.262C80.7265 62.3434 81.3348 63.81 81.3348 65.3393V66.6784C81.3348 69.1234 79.3501 71.1055 76.902 71.1055C75.9429 71.1055 75.0096 70.7948 74.2423 70.2201L66.5241 64.4388L69.0273 61.1055L76.7455 66.8867C76.7907 66.9205 76.8456 66.9388 76.902 66.9388C77.046 66.9388 77.1627 66.8222 77.1627 66.6784V65.3393C77.1627 64.9151 76.994 64.5082 76.6937 64.2083L69.6086 57.1323C69.2174 56.7416 68.6868 56.5221 68.1336 56.5221Z" fill="white"/>
<path fill-rule="evenodd" clip-rule="evenodd" d="M71.9473 37.2507C71.9473 34.9495 73.8151 33.084 76.1193 33.084H92.8074C95.1115 33.084 96.9794 34.9495 96.9794 37.2507V47.6673C96.9794 49.9685 95.1115 51.834 92.8074 51.834H76.1193C73.8151 51.834 71.9473 49.9685 71.9473 47.6673V37.2507ZM79.2483 42.459C79.2483 39.5825 81.5832 37.2507 84.4633 37.2507C87.3435 37.2507 89.6784 39.5825 89.6784 42.459C89.6784 45.3355 87.3435 47.6673 84.4633 47.6673C81.5832 47.6673 79.2483 45.3355 79.2483 42.459Z" fill="white"/>
<rect x="0.5" y="38" width="36" height="36" rx="18" fill="#084298"/>
<rect x="0.5" y="38" width="36" height="36" rx="18" stroke="#F6F6F6"/>
<path d="M15.4164 48.476C15.7164 49.148 15.9684 49.976 16.1724 50.96C16.2804 51.548 16.4364 52.01 16.6404 52.346C16.8564 52.682 17.1564 52.94 17.5404 53.12C17.1804 52.616 17.0004 52.034 17.0004 51.374C17.0004 50.774 17.1444 50.228 17.4324 49.736C17.7204 49.232 18.1104 48.836 18.6024 48.548C19.0944 48.248 19.6284 48.098 20.2044 48.098C20.7444 48.098 21.1944 48.176 21.5544 48.332C21.9144 48.488 22.3644 48.752 22.9044 49.124L23.2824 49.376L22.5804 50.528C21.8964 50.156 21.4164 49.916 21.1404 49.808C20.8764 49.688 20.5644 49.628 20.2044 49.628C19.7124 49.628 19.2864 49.796 18.9264 50.132C18.5784 50.468 18.4044 50.882 18.4044 51.374C18.4044 52.01 18.6684 52.532 19.1964 52.94C19.7244 53.348 20.5344 53.576 21.6264 53.624H22.9944V55.244C21.2544 55.244 19.8924 55.166 18.9084 55.01C17.9244 54.854 17.1384 54.548 16.5504 54.092C16.5864 54.812 16.6044 55.808 16.6044 57.08L16.5684 60.5H15.1644L15.2004 57.08V56.486C15.2004 55.034 15.1284 53.69 14.9844 52.454C14.8404 51.206 14.5524 50.096 14.1204 49.124L15.4164 48.476Z" fill="white"/>
</svg>
