<svg width="130" height="112" viewBox="0 0 130 112" fill="none" xmlns="http://www.w3.org/2000/svg">
<rect x="18" width="112" height="112" rx="56" fill="#353739"/>
<path fill-rule="evenodd" clip-rule="evenodd" d="M51.0859 43.5C51.0859 40.0482 53.8878 37.25 57.344 37.25H90.7202C94.1764 37.25 96.9782 40.0482 96.9782 43.5V47.6667C96.9782 48.8173 96.0442 49.75 94.8922 49.75H53.1719C52.0199 49.75 51.0859 48.8173 51.0859 47.6667V43.5ZM57.344 41.4167C56.1919 41.4167 55.258 42.3494 55.258 43.5V45.5833H92.8062V43.5C92.8062 42.3494 91.8722 41.4167 90.7202 41.4167H57.344Z" fill="white"/>
<path fill-rule="evenodd" clip-rule="evenodd" d="M71.9473 41.416V35.166H76.1193V41.416H71.9473Z" fill="white"/>
<path fill-rule="evenodd" clip-rule="evenodd" d="M82.377 41.416V35.166H86.549V41.416H82.377Z" fill="white"/>
<path fill-rule="evenodd" clip-rule="evenodd" d="M61.5156 41.416V35.166H65.6876V41.416H61.5156Z" fill="white"/>
<path fill-rule="evenodd" clip-rule="evenodd" d="M53.1719 45.582C52.0199 45.582 51.0859 46.5148 51.0859 47.6654V72.6654C51.0859 76.1171 53.8878 78.9154 57.344 78.9154H90.7202C94.1764 78.9154 96.9782 76.1171 96.9782 72.6654V47.6654C96.9782 46.5148 96.0442 45.582 94.8922 45.582H53.1719ZM71.3351 55.3885L65.077 61.6385C64.2624 62.4521 62.9416 62.4521 62.127 61.6385L57.955 57.4718L60.905 54.5256L63.602 57.2191L68.385 52.4422L71.3351 55.3885ZM83.8511 61.6385L90.1092 55.3885L87.1591 52.4422L82.3761 57.2191L79.6791 54.5256L76.7291 57.4718L80.9011 61.6385C81.7157 62.4521 83.0365 62.4521 83.8511 61.6385ZM90.1092 65.8052L83.8511 72.0552C83.0365 72.8688 81.7157 72.8688 80.9011 72.0552L76.7291 67.8885L79.6791 64.9422L82.3761 67.6358L87.1591 62.8589L90.1092 65.8052ZM59.43 70.582H69.86V66.4154H59.43V70.582Z" fill="white"/>
<rect x="0.5" y="38" width="36" height="36" rx="18" fill="#084298"/>
<rect x="0.5" y="38" width="36" height="36" rx="18" stroke="#F6F6F6"/>
<path d="M16.6137 48.476C16.9497 49.232 17.2137 50.12 17.4057 51.14C17.5377 51.692 17.7537 52.07 18.0537 52.274C18.3657 52.478 18.7617 52.58 19.2417 52.58C19.6617 52.58 20.0097 52.472 20.2857 52.256C20.5617 52.028 20.6997 51.686 20.6997 51.23C20.6997 51.17 20.6877 51.056 20.6637 50.888L20.3397 48.71L21.7437 48.458L22.0677 50.672C22.0917 50.792 22.1037 50.972 22.1037 51.212C22.1037 51.812 21.9597 52.34 21.6717 52.796C21.3957 53.252 21.0357 53.6 20.5917 53.84C20.1597 54.08 19.7097 54.2 19.2417 54.2C18.6417 54.2 18.1377 54.068 17.7297 53.804C17.7777 54.596 17.8017 55.688 17.8017 57.08L17.7657 60.5H16.3617L16.3977 57.08V56.486C16.3977 55.034 16.3257 53.69 16.1817 52.454C16.0377 51.206 15.7497 50.096 15.3177 49.124L16.6137 48.476Z" fill="white"/>
</svg>
