<svg width="132" height="52" viewBox="0 0 132 52" fill="none" xmlns="http://www.w3.org/2000/svg">
<path d="M67.0015 4.11711C66.3567 3.87415 65.6433 3.87415 64.9985 4.11711L2.71589 27.5847C1.6844 27.9734 0.527937 27.4659 0.132853 26.4512C-0.26223 25.4364 0.253675 24.2988 1.28516 23.9101L63.5678 0.442547C65.1338 -0.147515 66.8662 -0.147516 68.4322 0.442547L130.715 23.9101C131.746 24.2988 132.262 25.4364 131.867 26.4512C131.472 27.4659 130.316 27.9734 129.284 27.5847L67.0015 4.11711Z" fill="#0C0C0C"/>
<path fill-rule="evenodd" clip-rule="evenodd" d="M41.2946 45.6073C39.8583 45.6223 38.6189 45.3489 37.5764 44.7874C36.5399 44.2198 35.7371 43.4113 35.1682 42.3619C34.5991 41.3065 34.3067 40.0545 34.291 38.6058C34.2757 37.1929 34.541 35.95 35.087 34.8771C35.6329 33.8042 36.4087 32.9644 37.4143 32.3577C38.4259 31.751 39.6166 31.4405 40.9862 31.4263C41.9073 31.4167 42.7664 31.5539 43.5635 31.8377C44.3665 32.1156 45.0682 32.5406 45.6683 33.1127C46.2746 33.6847 46.7491 34.4072 47.0919 35.2801C47.4347 36.147 47.6124 37.1647 47.6251 38.3332L47.6364 39.3795L38.1279 39.4782L38.128 39.4872C38.1354 40.1668 38.269 40.7527 38.5289 41.2448C38.7949 41.737 39.1657 42.1147 39.6413 42.3781C40.1169 42.6414 40.6789 42.7697 41.3274 42.763C41.7576 42.7585 42.1509 42.6948 42.5072 42.5719C42.8634 42.4489 43.1675 42.2669 43.4195 42.0258C43.6714 41.7847 43.8622 41.4906 43.9917 41.1434L47.5758 41.3387C47.4032 42.1871 47.0385 42.9303 46.4818 43.568C45.931 44.1998 45.2152 44.6961 44.3342 45.0571C43.4592 45.412 42.446 45.5954 41.2946 45.6073ZM38.4786 35.7631C38.2482 36.1725 38.124 36.6239 38.106 37.1174L43.9656 37.0565C43.9596 36.5081 43.8332 36.0234 43.5862 35.6027C43.3392 35.1819 42.9992 34.8545 42.5664 34.6206C42.1395 34.3805 41.6443 34.2635 41.0807 34.2693C40.4928 34.2754 39.9731 34.415 39.5215 34.688C39.0759 34.9549 38.7282 35.3133 38.4786 35.7631Z" fill="#0C0C0C"/>
<path d="M54.0138 37.2652L54.0999 45.2061L50.2275 45.2463L50.0784 31.5107L53.7691 31.4724L53.7954 33.8958L53.959 33.8941C54.2594 33.092 54.7707 32.4547 55.4929 31.9821C56.215 31.5036 57.0942 31.259 58.1305 31.2482C59.1002 31.2382 59.9478 31.438 60.6735 31.8479C61.3992 32.2577 61.9663 32.848 62.3746 33.6189C62.783 34.3838 62.9929 35.2998 63.0045 36.3669L63.0994 45.1126L59.2269 45.1528L59.1394 37.0867C59.1363 36.2461 58.911 35.5926 58.4635 35.1262C58.016 34.6539 57.4043 34.4217 56.6286 34.4298C56.1074 34.4352 55.6481 34.5503 55.2505 34.775C54.859 34.9997 54.5534 35.3248 54.3337 35.7504C54.1201 36.17 54.0134 36.6749 54.0138 37.2652Z" fill="#0C0C0C"/>
<path d="M73.4292 31.2682L73.4603 34.1298L70.8332 34.1571L70.9053 40.8102C70.9092 41.162 70.9667 41.4356 71.0779 41.6312C71.189 41.8209 71.342 41.9534 71.5368 42.0289C71.7376 42.1043 71.9683 42.1407 72.2289 42.138C72.4107 42.1361 72.5923 42.1193 72.7738 42.0876C72.9553 42.05 73.0943 42.0217 73.1911 42.0028L73.8309 44.8312C73.6376 44.8928 73.3657 44.9642 73.015 45.0454C72.6644 45.1325 72.2377 45.1876 71.7349 45.2107C70.802 45.2562 69.9826 45.1425 69.2766 44.8696C68.5766 44.5966 68.0295 44.167 67.6352 43.5809C67.241 42.9947 67.042 42.2515 67.0383 41.3512L66.9607 34.1973L65.0517 34.2171L65.0207 31.3555L66.9296 31.3357L66.8939 28.0449L70.7664 28.0047L70.8021 31.2955L73.4292 31.2682Z" fill="#0C0C0C"/>
<path d="M76.1008 44.9776L75.9518 31.242L79.8243 31.2018L79.9733 44.9373L76.1008 44.9776Z" fill="#0C0C0C"/>
<path d="M77.8779 29.4512C77.3022 29.4572 76.8063 29.2745 76.3901 28.9032C75.9799 28.5259 75.7719 28.0719 75.7662 27.5414C75.7605 27.0167 75.9586 26.5645 76.3606 26.1847C76.7685 25.7989 77.2604 25.603 77.8361 25.597C78.4118 25.591 78.9048 25.7767 79.3149 26.154C79.7311 26.5253 79.9421 26.9733 79.9477 27.4979C79.9535 28.0285 79.7524 28.4867 79.3444 28.8725C78.9425 29.2523 78.4536 29.4452 77.8779 29.4512Z" fill="#0C0C0C"/>
<path fill-rule="evenodd" clip-rule="evenodd" d="M18.4272 45.5765L18.2285 27.2625L25.5735 27.1862C26.9795 27.1716 28.1821 27.4065 29.1813 27.891C30.1866 28.3695 30.9547 29.0561 31.4856 29.9509C32.0226 30.8397 32.2976 31.8892 32.3107 33.0994C32.3239 34.3155 32.0686 35.3646 31.5448 36.2465C31.021 37.1224 30.2555 37.7981 29.2485 38.2736C29.1933 38.2999 29.1374 38.3254 29.0809 38.3502L33.1081 45.4241L28.7629 45.4692L25.1661 39.0136L22.2929 39.0435L22.3633 45.5357L18.4272 45.5765ZM22.2591 35.9315L24.9317 35.9037C25.6832 35.8959 26.3063 35.7881 26.801 35.5802C27.2957 35.3724 27.6621 35.0645 27.9001 34.6566C28.1442 34.2486 28.263 33.7436 28.2564 33.1415C28.2498 32.5334 28.12 32.022 27.867 31.6072C27.6201 31.1924 27.244 30.8804 26.7387 30.671C26.2393 30.4555 25.6109 30.3518 24.8534 30.3596L22.199 30.3872L22.2591 35.9315Z" fill="#0D6EFD"/>
<path fill-rule="evenodd" clip-rule="evenodd" d="M89.3249 34.7105V41.5599C91.4816 42.3077 93.0232 44.2913 93.0232 46.6208C93.0232 49.5914 90.5162 51.9996 87.4235 51.9996C84.3309 51.9996 81.8239 49.5914 81.8239 46.6208C81.8239 44.3629 83.2722 42.4299 85.3252 41.6323V20.495H89.3249V23.9528H97.7244V27.4107H89.3249V31.2527H96.9244V34.7105H89.3249ZM85.0456 46.6208C85.0456 47.8823 86.1102 48.905 87.4235 48.905C88.7369 48.905 89.8015 47.8823 89.8015 46.6208C89.8015 45.3592 88.7369 44.3365 87.4235 44.3365C86.1102 44.3365 85.0456 45.3592 85.0456 46.6208Z" fill="#0D6EFD"/>
<path d="M102.906 50.0425C102.415 50.0425 101.955 50.0037 101.524 49.9262C101.1 49.8547 100.748 49.7622 100.47 49.649L101.342 46.8051C101.797 46.9422 102.206 47.0168 102.57 47.0287C102.939 47.0406 103.258 46.9571 103.524 46.7783C103.797 46.5994 104.018 46.2954 104.188 45.8661L104.415 45.2848L99.4061 31.155H103.479L106.37 41.2426H106.515L109.433 31.155H113.533L108.106 46.3759C107.845 47.1151 107.491 47.759 107.042 48.3075C106.6 48.862 106.039 49.2883 105.361 49.5864C104.682 49.8904 103.864 50.0425 102.906 50.0425Z" fill="#0C0C0C"/>
<path d="M99.9886 5.12437H107.738C107.848 5.12437 107.938 5.21246 107.938 5.32112V13.9771C107.938 14.1155 107.796 14.2106 107.665 14.1605L99.9162 11.2017C99.8393 11.1724 99.7886 11.0995 99.7886 11.0183V5.32112C99.7886 5.21246 99.8781 5.12437 99.9886 5.12437Z" fill="#0C0C0C"/>
</svg>
